<svg width="232" height="138" viewBox="0 0 232 138" fill="none" xmlns="http://www.w3.org/2000/svg">
<path d="M143.326 86.5497L116.083 91.7038C115.992 96.2731 117.274 100.764 119.764 104.597C122.077 108.087 122.091 110.487 119.544 112.21C116.996 113.933 113.403 112.976 111.93 109.434C109.846 104.678 108.514 99.5897 106.776 94.3104C106.224 94.9804 105.429 95.8934 104.685 96.8506C100.392 102.366 94.8919 106.106 88.0222 107.468C85.6733 107.932 82.9122 108.205 80.7769 107.395C77.515 106.15 75.284 106.982 72.4271 108.543C63.7976 113.27 54.6011 114.956 46.1482 108.69C42.717 106.158 40.6038 101.651 38.2992 97.8005C37.2904 96.0996 36.4805 95.1129 34.4483 95.297C28.764 95.8051 23.0723 96.2027 17.3953 96.7696C16.4897 96.858 15.6356 97.5059 14.6489 97.933C14.9508 99.0448 15.179 99.9799 15.4662 100.878C18.2421 109.714 21.3567 118.505 23.6245 127.481C24.405 130.559 23.2858 134.167 22.6894 137.465C22.6305 137.767 19.3981 138.202 18.8017 137.576C16.7032 135.271 14.3838 132.746 13.4855 129.881C10.8569 121.362 8.84678 112.652 6.63785 104.015C6.36542 102.969 6.20343 101.894 5.26095 101.534C3.56744 100.135 1.14498 99.0522 0.357127 97.2556C-0.924052 94.3104 1.50577 92.6389 3.47172 91.9026C3.81778 83.5234 3.69261 75.5271 4.6719 67.678C5.14523 63.3334 6.64281 59.1631 9.04158 55.5099C11.4403 51.8568 14.6718 48.825 18.4704 46.6638C22.6673 44.1898 30.6416 46.1042 33.1082 49.9182C34.3157 51.7811 35.0226 53.7029 33.1082 55.5363C31.319 57.2592 29.6843 56.6776 27.954 55.2418C24.9499 52.7604 21.85 54.2772 20.2154 56.5892C17.4469 60.5137 14.6931 64.8506 13.5371 69.4157C11.9098 75.8216 11.7552 82.603 10.8495 90.1944C20.0461 87.9855 28.0424 86.314 35.6779 88.9353C37.1505 84.7089 38.0783 80.8359 39.8086 77.4268C42.2384 72.5524 46.2808 69.482 52.0682 69.5335C56.0811 69.5851 58.0396 71.4406 57.9586 75.424C57.7746 82.9196 53.6954 88.2211 47.827 92.3591C46.8233 92.9893 45.7833 93.5597 44.7124 94.0674C46.0599 101.813 53.5997 106.202 61.0953 103.772C62.0231 103.47 62.9214 103.036 63.8491 102.741C70.4096 100.473 70.2624 100.532 68.4069 93.817C66.9343 88.4272 66.6029 82.9491 69.2021 77.736C71.9044 72.3021 78.0378 70.8147 82.6913 74.6877C84.1967 76.0461 85.181 77.8871 85.4745 79.8934C86.1446 85.4894 85.4009 90.9381 81.7046 95.5621C81.3154 96.14 80.9732 96.7482 80.6812 97.3808C86.4906 102.218 99.2362 96.4825 102.439 87.6909C100.341 85.9312 96.1363 85.482 97.8151 81.1451C98.8018 78.5681 101.968 77.8317 106.18 78.8258C106.18 71.124 106.18 63.3633 106.18 55.5436C106.189 53.9548 106.325 52.3692 106.585 50.8018C107.041 48.0112 109.272 47.5326 111.547 47.4001C114.073 47.2454 115.074 49.0494 115.229 51.1258C115.383 53.2022 114.868 55.5068 114.942 57.6937C115.199 65.7489 115.59 73.8041 115.936 82.0876C123.777 83.1479 130.986 82.8239 137.701 78.5239C140.244 76.8801 142.998 75.5895 145.889 74.6877C149.953 73.4802 152.221 75.1295 152.516 79.459C152.803 84.0683 152.516 88.7144 152.516 93.3458C152.516 94.6785 152.376 96.0112 152.28 97.7636C156.418 96.372 160.453 95.3706 164.112 93.6035C165.372 92.9997 166.189 90.5331 166.38 88.8249C166.969 83.6118 168.957 79.4811 173.662 76.7936C177.027 74.8791 181.806 75.1148 184.648 77.6992C187.49 80.2837 187.107 83.5897 185.826 86.8368C184.354 90.5184 181.592 93.0145 177.948 94.6638C176.608 95.2676 174.443 96.9316 174.612 97.4691C175.187 99.4159 176.331 101.147 177.896 102.439C181.268 104.84 185.119 103.713 188.757 100.186C190.185 98.7208 191.893 97.5566 193.778 96.7623C196.724 95.6652 198.27 97.2998 197.534 100.289C195.884 106.975 186.96 113.83 180.193 113.491C175.96 113.278 172.882 111.003 170.401 107.711C165.21 100.834 165.246 101.239 157.014 103.072C152.089 104.162 150.218 106.305 149.983 111.282C149.673 117.575 147.598 123.653 143.996 128.821C139.696 135.05 133.379 138.577 127.51 133.003C123.277 128.983 122.356 119.529 125.559 114.5C129.66 108.043 135.234 103.227 141.758 99.3173C142.282 98.9693 142.727 98.5146 143.063 97.983C143.399 97.4513 143.619 96.8547 143.709 96.2321C143.783 92.9114 143.466 89.6422 143.326 86.5497ZM143.591 108.558L142.384 107.439C139.439 110.178 136.221 112.711 133.592 115.737C132.25 117.475 131.449 119.57 131.288 121.76C131.14 123.336 132.333 125.029 132.937 126.671C134.41 126.053 136.243 125.81 137.193 124.749C141.338 120.17 143.098 114.566 143.591 108.558ZM43.2177 87.7057C48.5118 85.4967 52.0166 80.3426 51.7295 75.5492C46.9434 75.424 42.2826 81.9256 43.2177 87.7057ZM75.1957 93.2648C79.0171 88.8469 79.8565 82.8239 77.2868 79.2749C72.9057 81.9624 71.978 87.5878 75.1957 93.2648ZM173.338 90.6877L181.88 83.5676C177.035 81.182 173.78 83.9873 173.338 90.6877Z" fill="white"/>
<path d="M151.448 62.0452C151.647 64.8137 150.093 66.463 147.634 66.3968C145.285 66.3452 142.907 65.1598 142.995 62.2587C143.083 59.3576 145.027 57.8408 147.774 57.7083C150.785 57.5169 151.249 59.7405 151.448 62.0452Z" fill="white"/>
<path d="M187.902 21.2835L191.658 16.1661L195.56 21.1436L191.761 26.2094C190.421 24.5012 189.176 22.9181 187.902 21.2835Z" fill="white"/>
<path d="M180.407 45.155C178.154 46.1637 176.762 47.3639 175.753 47.0988C174.539 46.7748 173.648 45.2139 172.617 44.1536C173.994 43.1669 175.275 41.7753 176.806 41.3851C177.462 41.2599 178.632 43.2332 180.407 45.155Z" fill="white"/>
<path d="M158.2 22.3214C156.992 20.6132 155.497 19.3246 155.733 18.6399C156.241 17.2703 157.655 16.2321 158.678 15.0614C159.687 16.2395 161.226 17.2703 161.513 18.6325C161.69 19.4645 159.79 20.6279 158.2 22.3214Z" fill="white"/>
<path d="M222.421 25.6784C223.017 26.7755 224.092 27.8874 224.07 28.9624C224.07 29.9269 222.833 30.862 222.141 31.8119C220.999 30.9578 219.122 30.2435 218.923 29.2053C218.724 28.1672 220.256 26.8565 221.022 25.6637L222.421 25.6784Z" fill="white"/>
<path d="M232 2.12455C230.476 3.02285 229.592 4.00214 228.871 3.8696C228.149 3.73707 227.008 2.46325 227.111 1.8742C227.274 1.41665 227.547 1.00646 227.907 0.680161C228.267 0.353858 228.701 0.121569 229.173 0.00397638C229.821 -0.0770177 230.616 1.0569 232 2.12455Z" fill="white"/>
</svg>
