<svg width="26" height="25" viewBox="0 0 26 25" fill="none" xmlns="http://www.w3.org/2000/svg">
<path d="M13.0867 2.49834C16.3441 2.49834 16.7299 2.51092 18.0167 2.56963C19.4052 2.63292 20.6934 2.91085 21.6847 3.90248C22.6759 4.89373 22.9539 6.18197 23.0175 7.57049C23.0762 8.85682 23.0888 9.24265 23.0888 12.5004C23.0888 15.7582 23.0762 16.1437 23.0175 17.4304C22.9542 18.8189 22.6763 20.1071 21.6847 21.0984C20.6934 22.0896 19.4048 22.3676 18.0167 22.4312C16.7303 22.4899 16.3445 22.5025 13.0867 22.5025C9.82894 22.5025 9.44311 22.4899 8.15678 22.4312C6.76826 22.3679 5.48002 22.09 4.48877 21.0984C3.49752 20.1071 3.21959 18.8189 3.15592 17.4304C3.09721 16.1433 3.08501 15.7575 3.08501 12.5C3.08501 9.24265 3.09759 8.85682 3.1563 7.57011C3.21959 6.18159 3.49752 4.89335 4.48915 3.9021C5.4804 2.91085 6.76864 2.63292 8.15716 2.56925C9.44349 2.51054 9.82932 2.49834 13.0867 2.49834ZM13.0867 0.300049C9.77328 0.300049 9.35809 0.314155 8.05651 0.37363C6.07401 0.463986 4.33246 0.949699 2.93403 2.34774C1.53675 3.74541 1.05066 5.48657 0.9603 7.46984C0.900825 8.77142 0.886719 9.18661 0.886719 12.5C0.886719 15.8135 0.900825 16.2287 0.9603 17.5303C1.05066 19.5128 1.53637 21.2543 2.93441 22.6527C4.33208 24.0504 6.07363 24.5365 8.05689 24.6269C9.35809 24.6859 9.77328 24.7001 13.0867 24.7001C16.4002 24.7001 16.8153 24.6859 18.1169 24.6265C20.0991 24.5361 21.841 24.0504 23.2394 22.6524C24.6371 21.2547 25.1232 19.5131 25.2135 17.5299C25.2726 16.2287 25.2867 15.8135 25.2867 12.5C25.2867 9.18661 25.2726 8.77142 25.2131 7.46984C25.1228 5.48734 24.6371 3.74579 23.239 2.34736C21.8414 0.949699 20.0998 0.463605 18.1166 0.373249C16.8153 0.314155 16.4002 0.300049 13.0867 0.300049Z" fill="#323230"/>
<path d="M13.0867 6.23535C9.62688 6.23535 6.82202 9.04021 6.82202 12.5001C6.82202 15.9599 9.62688 18.7648 13.0867 18.7648C16.5466 18.7648 19.3514 15.9599 19.3514 12.5001C19.3514 9.04021 16.5466 6.23535 13.0867 6.23535ZM13.0867 16.5668C10.8408 16.5668 9.01993 14.746 9.01993 12.5001C9.01993 10.2541 10.8408 8.43326 13.0867 8.43326C15.3327 8.43326 17.1535 10.2541 17.1535 12.5001C17.1535 14.746 15.3327 16.5668 13.0867 16.5668Z" fill="#323230"/>
<path d="M19.5995 7.45168C20.408 7.45168 21.0635 6.79623 21.0635 5.98768C21.0635 5.17914 20.408 4.52368 19.5995 4.52368C18.791 4.52368 18.1355 5.17914 18.1355 5.98768C18.1355 6.79623 18.791 7.45168 19.5995 7.45168Z" fill="#323230"/>
</svg>
