<svg width="34" height="43" viewBox="0 0 34 43" fill="none" xmlns="http://www.w3.org/2000/svg">
<path d="M17 0C12.4929 0.00517238 8.17191 1.7913 4.98492 4.96655C1.79792 8.1418 0.0051915 12.4469 0 16.9374C0 25.9962 15.4059 41.9252 16.0611 42.604C16.183 42.7293 16.3289 42.8289 16.4902 42.8969C16.6515 42.9649 16.8249 43 17 43C17.1751 43 17.3485 42.9649 17.5098 42.8969C17.6711 42.8289 17.817 42.7293 17.9389 42.604C18.5941 41.9252 34 25.9962 34 16.9374C33.9948 12.4469 32.2021 8.1418 29.0151 4.96655C25.8281 1.7913 21.5071 0.00517238 17 0Z" fill="#323230"/>
<path d="M17.248 28C19.7292 22.2568 21.6052 19.5278 24.5 17.5833C19.9511 15.5901 19.1779 11.3333 18.0751 8C16.6166 11.3333 12.7569 15.3611 10 17.5833C13.3083 19.25 16.2031 24.6667 17.248 28Z" fill="#C4BBAA"/>
</svg>
