<svg width="26" height="25" viewBox="0 0 26 25" fill="none" xmlns="http://www.w3.org/2000/svg">
<path d="M15.2655 10.8408C14.8672 10.8416 14.4746 10.9359 14.1194 11.116C13.7641 11.2961 13.4561 11.5571 13.22 11.8779C13.0134 11.5883 12.7487 11.3451 12.4427 11.1637C12.1368 10.9823 11.7963 10.8667 11.4432 10.8243C11.09 10.782 10.7319 10.8138 10.3917 10.9177C10.0515 11.0216 9.7368 11.1954 9.46759 11.4279C9.19839 11.6603 8.98065 11.9464 8.82831 12.2679C8.67596 12.5893 8.59235 12.9389 8.58283 13.2945C8.5733 13.6501 8.63807 14.0037 8.773 14.3328C8.90792 14.6619 9.11003 14.9593 9.3664 15.2058L13.22 19.0595L17.0737 15.2058C17.4313 14.8483 17.6749 14.3926 17.7736 13.8966C17.8723 13.4006 17.8217 12.8864 17.6281 12.4191C17.4346 11.9519 17.1068 11.5525 16.6862 11.2716C16.2657 10.9907 15.7713 10.8407 15.2655 10.8408Z" fill="#323230"/>
<path d="M1.97009 5.72714H24.4701V23.1135H1.97009V5.72714ZM1.97009 5.72714L20.3792 1.63623V5.72714" stroke="#323230" stroke-width="2.04545" stroke-miterlimit="10"/>
</svg>
