<svg width="25" height="22" viewBox="0 0 25 22" fill="none" xmlns="http://www.w3.org/2000/svg">
<path d="M21.9295 7.93649C21.7571 7.93844 21.5857 7.96244 21.4194 8.00791C20.7971 6.20297 19.6271 4.63717 18.0726 3.52879C16.5181 2.42042 14.6565 1.82471 12.7472 1.82471C10.838 1.82471 8.97641 2.42042 7.42188 3.52879C5.86734 4.63717 4.69738 6.20297 4.07509 8.00791C3.79351 7.93147 3.49882 7.91631 3.21088 7.96344C2.92294 8.01057 2.64846 8.11891 2.40595 8.28114C2.16344 8.44336 1.95854 8.65571 1.80507 8.90386C1.65161 9.15201 1.55314 9.43018 1.51632 9.71962C1.47949 10.0091 1.50517 10.303 1.59161 10.5817C1.67805 10.8604 1.82325 11.1172 2.01742 11.335C2.21158 11.5528 2.45019 11.7264 2.71715 11.8442C2.98411 11.9619 3.27322 12.021 3.56496 12.0175C3.58537 12.0175 3.60373 12.0124 3.62414 12.0114C3.87974 14.2519 4.9509 16.3201 6.63343 17.8216C8.31595 19.323 10.4922 20.1529 12.7472 20.1529C15.0023 20.1529 17.1785 19.323 18.8611 17.8216C20.5436 16.3201 21.6147 14.2519 21.8704 12.0114C21.8908 12.0114 21.9091 12.0175 21.9295 12.0175C22.4707 12.0175 22.9897 11.8025 23.3724 11.4199C23.7551 11.0372 23.97 10.5182 23.97 9.977C23.97 9.43582 23.7551 8.91681 23.3724 8.53414C22.9897 8.15147 22.4707 7.93649 21.9295 7.93649Z" stroke="#323230" stroke-width="2.04051" stroke-miterlimit="10"/>
<path d="M9.17638 10.997C10.0216 10.997 10.7068 10.3119 10.7068 9.46666C10.7068 8.62145 10.0216 7.93628 9.17638 7.93628C8.33117 7.93628 7.646 8.62145 7.646 9.46666C7.646 10.3119 8.33117 10.997 9.17638 10.997Z" fill="#323230"/>
<path d="M16.3181 10.997C17.1633 10.997 17.8485 10.3119 17.8485 9.46666C17.8485 8.62145 17.1633 7.93628 16.3181 7.93628C15.4729 7.93628 14.7877 8.62145 14.7877 9.46666C14.7877 10.3119 15.4729 10.997 16.3181 10.997Z" fill="#323230"/>
<path d="M10.3242 15.4604C11.0633 15.8784 11.8981 16.0981 12.7473 16.0981C13.5964 16.0981 14.4312 15.8784 15.1704 15.4604" stroke="#323230" stroke-width="2.04051" stroke-miterlimit="10" stroke-linecap="square"/>
<path d="M13.7675 5.62228C13.4964 5.7788 13.193 5.87085 12.8806 5.89134C12.5683 5.91182 12.2555 5.86018 11.9663 5.74041C11.6771 5.62064 11.4194 5.43595 11.213 5.20063C11.0066 4.96531 10.8571 4.68566 10.7761 4.38333C10.6951 4.081 10.6847 3.76409 10.7458 3.4571C10.8069 3.15012 10.9377 2.8613 11.1283 2.61299C11.3188 2.36468 11.564 2.16353 11.8447 2.0251C12.1254 1.88667 12.4342 1.81468 12.7472 1.8147" stroke="#323230" stroke-width="2.04051" stroke-miterlimit="10"/>
</svg>
