<svg width="16" height="18" viewBox="0 0 16 18" fill="none" xmlns="http://www.w3.org/2000/svg">
<path d="M12.7 12.2694C13.6 11.0017 14.1 9.52263 14.1 7.83231C14.1 3.71217 11 0.331543 7.1 0.331543C3.2 0.331543 0 3.71217 0 7.83231C0 11.9525 3.2 15.3331 7.1 15.3331C8.7 15.3331 10.2 14.8049 11.3 13.8541L14.3 17.0234C14.5 17.2347 14.8 17.3403 15 17.3403C15.2 17.3403 15.5 17.2347 15.7 17.0234C16.1 16.6008 16.1 15.967 15.7 15.5444L12.7 12.2694ZM7.1 13.1145C4.3 13.1145 2 10.7904 2 7.83231C2 4.87426 4.3 2.44444 7.1 2.44444C9.9 2.44444 12.2 4.87426 12.2 7.83231C12.2 10.7904 9.9 13.1145 7.1 13.1145Z" fill="#282727"/>
</svg>
