<svg width="195" height="109" viewBox="0 0 195 109" fill="none" xmlns="http://www.w3.org/2000/svg">
<path d="M112.437 68.561L91.065 72.6044C90.9935 76.1889 91.9996 79.7123 93.9531 82.7185C95.7668 85.4565 95.7784 87.3395 93.7798 88.6911C91.7812 90.0428 88.9624 89.2919 87.8072 86.5135C86.1725 82.7821 85.127 78.7907 83.7639 74.6492C83.3306 75.1748 82.7068 75.891 82.1234 76.642C78.7559 80.9683 74.441 83.9027 69.0518 84.9713C67.2092 85.3352 65.0431 85.5489 63.368 84.9135C60.8092 83.9373 59.059 84.59 56.8178 85.8146C50.0481 89.5229 42.8336 90.8457 36.2025 85.9301C33.5107 83.9431 31.853 80.408 30.045 77.3871C29.2537 76.0528 28.6183 75.2788 27.0241 75.4232C22.5648 75.8217 18.0998 76.1336 13.6463 76.5784C12.9359 76.6477 12.2658 77.156 11.4918 77.4911C11.7286 78.3633 11.9077 79.0968 12.133 79.8015C14.3106 86.733 16.7539 93.6298 18.533 100.671C19.1453 103.085 18.2673 105.916 17.7994 108.504C17.7532 108.74 15.2175 109.081 14.7496 108.59C13.1034 106.782 11.2839 104.801 10.5792 102.554C8.51705 95.871 6.94014 89.0377 5.20727 82.2622C4.99355 81.442 4.86648 80.5987 4.12712 80.3156C2.79859 79.2181 0.898216 78.369 0.28016 76.9596C-0.724902 74.6492 1.18125 73.338 2.7235 72.7603C2.99498 66.187 2.89679 59.914 3.66502 53.7566C4.03634 50.3483 5.21117 47.0768 7.09296 44.2109C8.97474 41.3451 11.5098 38.9667 14.4897 37.2713C17.7821 35.3304 24.0377 36.8323 25.9728 39.8243C26.9201 41.2857 27.4746 42.7933 25.9728 44.2316C24.5692 45.5832 23.2868 45.1269 21.9294 44.0005C19.5727 42.054 17.1409 43.2439 15.8586 45.0576C13.6868 48.1363 11.5265 51.5385 10.6196 55.1198C9.34305 60.1451 9.22175 65.465 8.51127 71.4202C15.7258 69.6874 21.9987 68.3762 27.9887 70.4325C29.1439 67.117 29.8717 64.0787 31.2291 61.4043C33.1353 57.5804 36.3064 55.1718 40.8465 55.2122C43.9946 55.2526 45.5311 56.7082 45.4675 59.8332C45.3231 65.7133 42.1231 69.8722 37.5194 73.1185C36.7321 73.6128 35.9162 74.0603 35.0761 74.4585C36.1331 80.5351 42.048 83.9777 47.9282 82.0716C48.656 81.8348 49.3607 81.494 50.0885 81.2629C55.2351 79.4839 55.1196 79.5301 53.664 74.2621C52.5087 70.034 52.2488 65.7365 54.2878 61.6469C56.4077 57.384 61.2193 56.2172 64.8698 59.2555C66.0508 60.3212 66.8229 61.7654 67.0532 63.3393C67.5789 67.7292 66.9955 72.0037 64.0958 75.6311C63.7905 76.0845 63.522 76.5616 63.2929 77.0578C67.8504 80.8528 77.849 76.3531 80.3617 69.4563C78.7154 68.0758 75.4172 67.7235 76.7342 64.3213C77.5082 62.2996 79.992 61.722 83.296 62.5018C83.296 56.4598 83.296 50.3717 83.296 44.2374C83.3035 42.991 83.4097 41.7471 83.6137 40.5175C83.9718 38.3283 85.722 37.9528 87.5068 37.8489C89.4881 37.7276 90.2737 39.1427 90.395 40.7716C90.5163 42.4005 90.1119 44.2085 90.1697 45.924C90.3718 52.2432 90.678 58.5624 90.9495 65.0606C97.1011 65.8924 102.756 65.6383 108.024 62.2649C110.019 60.9754 112.18 59.963 114.447 59.2555C117.636 58.3082 119.415 59.6021 119.646 62.9985C119.871 66.6144 119.646 70.2592 119.646 73.8925C119.646 74.938 119.536 75.9835 119.461 77.3582C122.707 76.2665 125.872 75.4809 128.743 74.0946C129.731 73.621 130.372 71.686 130.522 70.3459C130.984 66.2563 132.544 63.0159 136.235 60.9075C138.875 59.4057 142.624 59.5906 144.853 61.618C147.083 63.6455 146.782 66.239 145.777 68.7863C144.622 71.6744 142.456 73.6325 139.597 74.9264C138.546 75.4001 136.847 76.7055 136.98 77.1272C137.431 78.6544 138.328 80.0121 139.556 81.0261C142.202 82.9091 145.223 82.0254 148.076 79.2586C149.197 78.1091 150.536 77.1958 152.016 76.5726C154.326 75.712 155.539 76.9943 154.962 79.3394C153.668 84.5843 146.667 89.9619 141.359 89.6962C138.037 89.5287 135.623 87.7438 133.676 85.1619C129.604 79.7669 129.633 80.0846 123.175 81.5229C119.311 82.3777 117.844 84.0586 117.659 87.9633C117.416 92.8995 115.788 97.6676 112.963 101.722C109.589 106.609 104.633 109.376 100.03 105.003C96.7084 101.849 95.9863 94.4327 98.499 90.4875C101.716 85.4218 106.089 81.6442 111.207 78.577C111.618 78.304 111.967 77.9473 112.23 77.5303C112.494 77.1132 112.667 76.6452 112.737 76.1567C112.795 73.5517 112.547 70.987 112.437 68.561ZM112.645 85.8261L111.698 84.9482C109.387 87.0969 106.863 89.0839 104.801 91.458C103.748 92.8216 103.119 94.4647 102.993 96.1829C102.877 97.419 103.813 98.7475 104.287 100.036C105.442 99.5504 106.88 99.3598 107.625 98.528C110.877 94.9352 112.258 90.5395 112.645 85.8261ZM33.9035 69.4679C38.0566 67.735 40.8061 63.6917 40.5808 59.9314C36.8263 59.8332 33.1699 64.9336 33.9035 69.4679ZM58.9896 73.8289C61.9875 70.3632 62.646 65.6383 60.6301 62.8541C57.1932 64.9624 56.4654 69.3755 58.9896 73.8289ZM135.981 71.8073L142.681 66.2217C138.881 64.3502 136.327 66.5509 135.981 71.8073Z" fill="#323230"/>
<path d="M118.808 49.3378C118.964 51.5096 117.745 52.8035 115.816 52.7515C113.973 52.7111 112.108 51.7811 112.177 49.5053C112.246 47.2294 113.771 46.0395 115.926 45.9356C118.288 45.7854 118.652 47.5298 118.808 49.3378Z" fill="#323230"/>
<path d="M147.406 17.3612L150.352 13.3467L153.413 17.2514L150.433 21.2254C149.381 19.8854 148.405 18.6435 147.406 17.3612Z" fill="#323230"/>
<path d="M192 5.52859L193.471 4L195 5.4868L193.512 7C192.987 6.48974 192.499 6.01686 192 5.52859Z" fill="white"/>
<path d="M141.526 36.0878C139.759 36.8792 138.667 37.8207 137.875 37.6128C136.922 37.3586 136.223 36.134 135.415 35.3023C136.495 34.5283 137.5 33.4366 138.701 33.1304C139.216 33.0322 140.134 34.5802 141.526 36.0878Z" fill="#323230"/>
<path d="M124.105 18.1753C123.157 16.8352 121.985 15.8244 122.17 15.2872C122.568 14.2128 123.677 13.3984 124.48 12.48C125.272 13.4042 126.479 14.2128 126.704 15.2814C126.843 15.9342 125.352 16.8468 124.105 18.1753Z" fill="#323230"/>
<path d="M174.485 20.8092C174.953 21.6698 175.796 22.542 175.779 23.3854C175.779 24.142 174.808 24.8756 174.265 25.6208C173.37 24.9507 171.897 24.3904 171.741 23.576C171.585 22.7615 172.787 21.7334 173.387 20.7976L174.485 20.8092Z" fill="#323230"/>
<path d="M182 2.33132C180.804 3.03602 180.111 3.80425 179.545 3.70028C178.979 3.59631 178.084 2.59702 178.164 2.13493C178.292 1.77598 178.507 1.4542 178.789 1.19822C179.071 0.942242 179.412 0.760015 179.782 0.667766C180.29 0.604228 180.914 1.49376 182 2.33132Z" fill="#323230"/>
</svg>
